<?xml version="1.0" standalone="no"?>
<!DOCTYPE svg PUBLIC "-//W3C//DTD SVG 20010904//EN"
 "http://www.w3.org/TR/2001/REC-SVG-20010904/DTD/svg10.dtd">
<svg version="1.0" xmlns="http://www.w3.org/2000/svg"
 width="512.000000pt" height="512.000000pt" viewBox="0 0 512.000000 512.000000"
 preserveAspectRatio="xMidYMid meet">
<metadata>
Created by potrace 1.14, written by Peter Selinger 2001-2017
</metadata>
<g transform="translate(0.000000,512.000000) scale(0.100000,-0.100000)"
fill="#000000" stroke="none">
<path d="M2405 5104 c-230 -54 -411 -195 -514 -401 -89 -176 -102 -355 -45
-593 35 -144 113 -321 199 -450 l46 -70 -37 -77 c-48 -101 -160 -214 -344
-346 -287 -208 -388 -300 -511 -464 -91 -121 -203 -360 -225 -483 -3 -14 -9
-38 -14 -55 -5 -16 -11 -48 -15 -70 -3 -22 -7 -51 -10 -65 -11 -58 -17 -136
-22 -317 l-5 -193 93 -1 c198 -2 308 5 389 23 25 5 56 12 70 14 67 12 207 65
317 119 l122 61 -4 -36 c-28 -220 -133 -449 -271 -587 l-32 -33 -63 21 c-89
28 -285 76 -339 83 -25 3 -56 8 -70 11 -132 26 -554 27 -710 1 -14 -3 -45 -7
-69 -10 -24 -3 -46 -8 -48 -10 -8 -7 27 -193 52 -281 62 -214 161 -395 288
-532 l59 -63 -346 0 -346 0 0 -150 0 -150 2560 0 2560 0 0 150 0 150 -346 0
-346 0 37 41 c89 99 190 289 263 500 51 147 105 330 98 336 -27 27 -508 48
-698 31 -161 -15 -347 -52 -512 -104 -76 -24 -80 -24 -99 -7 -40 34 -68 68
-122 149 -84 124 -147 288 -163 426 l-8 66 50 -30 c133 -77 325 -147 476 -172
95 -16 175 -19 364 -17 l98 1 -5 208 c-8 281 -25 400 -88 592 -103 316 -268
523 -635 795 -235 175 -310 239 -358 303 -42 58 -86 143 -86 167 0 10 16 42
36 72 95 143 167 314 209 495 20 86 23 125 21 233 -2 111 -7 142 -30 210 -84
246 -258 418 -501 495 -88 28 -279 35 -370 14z"/>
<path d="M1285 4786 c-11 -7 -58 -37 -105 -66 -164 -103 -277 -195 -450 -370
-118 -119 -257 -292 -345 -431 -93 -147 -255 -507 -279 -620 -3 -13 -15 -58
-26 -99 -11 -41 -23 -86 -25 -100 -16 -82 -37 -216 -44 -285 -9 -79 -7 -477 2
-525 3 -14 8 -47 12 -75 24 -182 73 -368 156 -592 l8 -22 73 30 c40 16 82 34
93 39 11 5 41 18 67 29 l48 20 -21 48 c-56 131 -119 391 -136 559 -10 96 -10
383 -1 479 7 65 24 169 46 275 61 289 230 635 437 896 169 211 418 426 635
547 l32 17 -25 43 c-13 23 -39 69 -57 102 -70 129 -63 122 -95 101z"/>
<path d="M3790 4778 c-5 -13 -25 -50 -44 -83 -19 -33 -46 -82 -60 -108 l-25
-48 32 -19 c49 -28 180 -113 197 -127 8 -6 51 -40 95 -75 330 -262 605 -665
729 -1068 38 -125 70 -262 81 -350 4 -29 9 -62 12 -74 3 -12 6 -106 8 -211 4
-289 -26 -495 -111 -754 -24 -74 -44 -138 -44 -142 0 -4 12 -12 28 -17 15 -6
75 -31 134 -55 l108 -44 29 76 c67 175 118 387 144 601 14 110 16 509 4 570
-3 14 -8 46 -11 71 -10 71 -15 98 -32 174 -9 39 -18 79 -20 91 -11 58 -69 236
-109 334 -166 409 -420 750 -776 1045 -76 64 -335 235 -354 235 -3 0 -10 -10
-15 -22z"/>
</g>
</svg>
